<svg width="110" height="116" viewBox="0 0 110 116" fill="none" xmlns="http://www.w3.org/2000/svg">
<g clip-path="url(#clip0_1898_965)">
<path d="M11.5216 111.27C8.92386 107.413 8.99851 106.758 8.19235 106.748C7.39114 106.813 7.62504 107.078 5.48518 110.16C3.66379 107.482 3.67373 106.758 2.88247 106.753C2.05142 106.778 2.16089 107.348 -0.556208 111.28C-0.92944 111.849 -0.516396 112.599 0.155416 112.599C0.951642 112.599 0.971542 111.834 2.85762 109.176L4.74869 112.189C5.03235 112.639 5.78378 112.803 6.17693 112.204L8.17246 109.166L10.0884 112.184C10.7005 113.138 12.1238 112.214 11.5216 111.27Z" fill="#F6971E"/>
<path d="M0.856592 107.441L2.84716 104.404L4.7432 107.412C4.89746 107.656 5.16619 107.806 5.45482 107.811C6.17142 107.911 6.33565 107.002 8.16696 104.389L10.0829 107.407C10.3367 107.806 10.8642 107.921 11.2573 107.666C11.6554 107.412 11.7699 106.887 11.5161 106.487C8.91337 102.62 8.993 101.971 8.18683 101.966H8.18186C7.39061 101.966 7.34582 102.74 5.47965 105.378C3.65827 102.7 3.66821 101.976 2.87695 101.971C2.56841 101.976 2.31959 102.11 2.16034 102.355L-0.556763 106.497C-1.18379 107.451 0.244465 108.366 0.856592 107.441Z" fill="#F6971E"/>
<path d="M10.1279 16.7366H10.1727C13.7408 16.7366 15.3881 12.2 12.5366 9.92179C13.4423 9.23232 14.0395 8.15814 14.0544 6.92912C14.0593 6.45947 13.6861 6.07476 13.2133 6.06477H13.2034C12.7406 6.06477 12.3574 6.43949 12.3524 6.90914C12.3375 8.07825 11.3522 9.00752 10.2126 9.01251C9.04309 8.99752 8.10758 8.03824 8.11752 6.86412C8.12747 5.73498 6.42557 5.705 6.4206 6.84413C6.41065 8.0682 6.98294 9.15739 7.87368 9.86687C4.91274 12.1351 6.58977 16.6966 10.1279 16.7366ZM10.1479 15.0279C8.27665 15.008 7.34118 12.7097 8.69477 11.3856C10.0285 10.0717 12.3126 11.0359 12.2877 12.9294C12.2728 14.0985 11.3571 15.0879 10.1479 15.0279Z" fill="#F6971E"/>
<path d="M97.5333 86.5175C96.7719 88.6609 98.8172 90.6993 100.932 89.9699C103.838 88.9657 103.027 84.614 99.9618 84.7288C101.33 82.7704 103.868 82.4206 105.68 83.6247C106.068 83.8845 106.595 83.7795 106.859 83.3848C107.118 82.9901 107.008 82.4655 106.62 82.2007C102.943 79.7676 97.9463 82.1159 97.5333 86.5175ZM100.992 87.0921C101.171 87.6117 100.897 88.1763 100.38 88.3562C99.5437 88.6409 98.7823 87.7716 99.1655 86.9822C99.3396 86.6225 99.693 86.4226 100.056 86.4226C100.206 86.4226 100.852 86.6824 100.992 87.0921Z" fill="#F6971E"/>
<path d="M105.72 84.5547C102.938 85.5189 103.52 89.7707 106.576 89.8007C105.123 91.5793 102.629 91.7793 100.888 90.5152C100.51 90.2404 99.977 90.3253 99.7033 90.705C99.4296 91.0848 99.5142 91.6193 99.8924 91.8941C103.485 94.5072 108.631 92.3638 109.163 87.8872C109.323 87.3626 109.333 86.783 109.144 86.2234C108.656 84.8194 107.123 84.065 105.72 84.5547ZM106.924 88.047C106.088 88.3318 105.327 87.4625 105.71 86.6731C105.949 86.1835 106.536 85.9736 107.034 86.2135C107.825 86.6032 107.75 87.7622 106.924 88.047Z" fill="#F6971E"/>
<path d="M84.2014 28.042C88.3966 29.0462 88.2423 29.0362 88.4264 29.0362C89.0136 29.0362 89.5013 28.3767 89.1579 27.7522C89.1529 27.7422 89.1479 27.7322 89.138 27.7272C89.1032 27.6722 89.0783 27.6123 89.0335 27.5623C87.6052 26.1084 89.0036 23.7053 90.9345 24.1849C92.935 24.6646 92.9947 27.5124 91.0141 28.087C90.9494 28.107 90.8997 28.1419 90.8449 28.1769C90.835 28.1819 90.825 28.1869 90.8101 28.1919C90.1582 28.5966 90.3622 29.5658 91.0689 29.7407C95.264 30.7449 95.1097 30.7349 95.2938 30.7349C96.2941 30.7349 96.4633 29.291 95.4929 29.0512L93.2783 28.5166C95.1196 26.3082 93.9054 23.1507 91.3226 22.5261C88.7796 21.9166 86.2466 24.1199 86.8488 26.9278L84.5895 26.3832C83.4947 26.1284 83.1166 27.7771 84.2014 28.042Z" fill="#F6971E"/>
<path d="M35.9854 76.1655C43.689 87.6369 60.3755 88.1215 68.7556 76.9999C68.9745 76.7101 68.9845 76.3104 68.7805 76.0057C61.0471 64.4894 44.3217 64.0048 36.0103 75.1763C35.7914 75.4711 35.7814 75.8658 35.9854 76.1655ZM52.5673 68.7962C56.5634 68.8961 59.7284 72.2435 59.6289 76.2555C59.4597 82.8755 51.4826 85.6783 47.1331 81.0867C42.714 76.4203 46.1179 68.6213 52.5673 68.7962ZM67.0192 76.4554C64.8644 79.1283 61.998 81.0968 58.8429 82.236C62.0427 78.8585 62.1721 73.7424 59.1116 70.2051C62.2368 71.5041 64.9938 73.6425 67.0192 76.4554ZM45.9593 69.8604C42.7295 73.2229 42.5703 78.404 45.6657 81.9612C42.5306 80.6672 39.7637 78.5288 37.7382 75.7209C39.9029 73.003 42.7744 70.9995 45.9593 69.8604Z" fill="#F6971E"/>
<path d="M50.8145 79.8376C50.8095 80.0924 50.705 80.3123 50.5656 80.4971C53.7406 81.8161 57.0798 79.4829 57.1644 76.1904C57.2291 73.5424 55.144 71.339 52.5065 71.269C48.4408 71.1641 46.0869 75.9105 48.7095 79.1081C48.9285 78.8133 50.8394 78.7035 50.8145 79.8376ZM53.6958 72.7529C54.6164 72.7779 55.343 73.5424 55.318 74.4666C55.2931 75.3908 54.5318 76.1204 53.6112 76.0953C52.6906 76.0703 51.964 75.3059 51.9889 74.3817C52.0088 73.4624 52.7752 72.7329 53.6958 72.7529Z" fill="#F6971E"/>
<path d="M11.8591 18.2945C11.5257 17.9598 10.9883 17.9598 10.6598 18.2945C10.3264 18.6292 10.3264 19.1688 10.6598 19.4986L24.1307 33.0179C24.2899 33.1778 24.5039 33.2678 24.7328 33.2678H30.172L32.6254 56.8147L34.5314 69.9401L19.826 53.5123C17.5319 50.9292 13.5358 50.7644 11.0328 53.0476C8.46497 55.3609 8.26088 59.3178 10.57 61.8709C22.0505 74.7315 19.0647 70.894 21.5678 76.1103C22.4835 77.9989 23.7923 79.8425 25.4495 81.5912C27.2409 83.4749 28.5349 84.6339 30.3114 85.9479H26.6289C26.405 85.9479 26.186 86.0378 26.0267 86.1977L12.4616 99.8168C11.9241 100.356 12.3123 101.271 13.0637 101.271C13.7356 101.271 13.0687 101.48 26.978 87.6515H32.2829C34.6815 90.0098 36.6173 93.1624 38.0306 97.0844L38.0704 104.744L37.304 104.749C36.3635 104.754 35.6071 105.518 35.6121 106.462L35.642 114.301C35.6469 115.246 36.4083 116.005 37.3488 116L67.7392 115.89C68.6797 115.885 69.4361 115.121 69.4311 114.176L69.4013 106.337C69.3963 105.393 68.6349 104.634 67.6944 104.639L66.9629 104.644L66.9231 96.9495C69.6501 87.9864 72.4718 78.0045 73.5268 68.8006H87.083L98.3994 80.162C99.1857 80.9514 100.395 79.7573 99.5987 78.9579L88.0335 67.3468C87.5608 66.8721 87.8146 67.1869 73.7015 67.0969C74.7017 56.0053 74.1344 47.877 74.2489 41.9064C76.7321 41.8365 77.0855 42.0813 77.5035 41.6566L86.5457 32.5784C86.8791 32.2437 86.8791 31.7041 86.5457 31.3744C86.2123 31.0396 85.6748 31.0396 85.3463 31.3744L76.5531 40.2026H74.244L74.2191 33.2529C74.2042 30.6498 72.1041 28.5765 69.5413 28.5765H69.5214C66.9137 28.5865 64.8485 30.7149 64.8584 33.263L64.8136 34.9567L64.2662 25.159C64.2563 22.2712 61.9123 19.898 59.0062 19.898H58.9862C56.095 19.908 53.756 22.2862 53.7659 25.174L53.6266 32.9431L52.8951 20.2728C52.8901 17.3399 50.4964 15.0117 47.6549 15.0117H47.635C44.7387 15.0217 42.3848 17.3999 42.3948 20.3077L42.4794 43.3456L39.9613 26.2181C39.7124 21.5716 33.9497 19.4882 30.8295 22.9406C29.8889 23.9848 29.4112 25.3387 29.4858 26.7926L29.9785 31.5491H25.0667L11.8591 18.2945ZM31.1877 26.6732C31.1379 25.7189 31.4614 24.8046 32.0984 24.1001C34.2134 21.752 38.1048 23.1958 38.2791 26.4034L42.5339 55.4016C42.6931 56.4708 44.2258 56.3059 44.2258 55.2767L44.1014 20.3182C44.0965 18.3497 45.684 16.7409 47.6497 16.7309H47.6596C49.5408 16.7309 51.1928 18.2548 51.2028 20.3382L53.2281 55.4169C53.2928 56.5011 54.9052 56.4711 54.925 55.3819L55.4675 25.1993C55.4625 23.2308 57.045 21.622 58.9957 21.612H59.0057C60.9017 21.612 62.5589 23.1359 62.5688 25.2143L64.2657 55.4813C64.3254 56.5655 65.9328 56.5455 65.9626 55.4563L66.5598 33.2677C66.5548 31.5989 67.8935 30.2699 69.5307 30.2649H69.5406C71.1381 30.2649 72.5115 31.5539 72.5215 33.2476L72.5463 40.1924H70.3219C69.8541 40.1924 69.4709 40.5721 69.4709 41.0467C69.4709 41.5164 69.8491 41.9011 70.3219 41.9011H72.5513C72.4468 47.132 72.9793 56.4347 71.9939 67.0916L67.7739 67.0866C67.3062 67.0866 66.923 67.4663 66.923 67.9409C66.923 68.4106 67.3012 68.7953 67.7739 68.7953H71.8198C70.2422 82.2903 65.226 95.7649 65.226 96.824L65.2658 104.648L39.7662 104.743C39.7115 96.5493 39.7662 96.8989 39.6766 96.6541C38.3977 93.0569 36.6958 90.0592 34.6106 87.661H38.7958C39.2636 87.661 39.6468 87.2813 39.6468 86.8067C39.6468 86.337 39.2686 85.9523 38.7958 85.9523H32.9635C31.172 84.3136 25.7627 80.8761 23.0903 75.3754C20.5672 70.0844 23.349 73.6416 11.8236 60.742C10.1615 58.8984 10.281 56.0255 12.162 54.3219C13.9883 52.6581 16.8945 52.798 18.5517 54.6566L34.9246 72.948C35.5019 73.5926 36.6565 73.038 36.5519 72.2036L34.3026 56.6109L31.8741 33.2738H33.9941C34.4619 33.2738 34.8451 32.894 34.8451 32.4194C34.8451 31.9498 34.4669 31.565 33.9941 31.565H31.695L31.1877 26.6732Z" fill="#F6971E"/>
</g>
<defs>
<clipPath id="clip0_1898_965">
<rect width="110" height="116" fill="white"/>
</clipPath>
</defs>
</svg>
