<?xml version="1.0" encoding="UTF-8"?>
<svg version="1.1" xmlns="http://www.w3.org/2000/svg" width="512" height="512">
<path d="M0 0 C1.17254333 0.06850662 1.17254333 0.06850662 2.36877441 0.13839722 C3.59920471 0.25757004 3.59920471 0.25757004 4.85449219 0.37915039 C5.67767944 0.44659454 6.5008667 0.5140387 7.34899902 0.58352661 C10.08024936 0.83201252 12.80179858 1.13233877 15.52636719 1.44555664 C16.54542145 1.55950272 17.56447571 1.67344879 18.6144104 1.79084778 C21.94534178 2.16698152 25.27501241 2.55288538 28.60449219 2.94165039 C29.75330872 3.0750885 30.90212524 3.20852661 32.08575439 3.3460083 C68.3465288 7.58486705 104.28215549 13.10981953 139.85449219 21.37915039 C140.54976013 21.54050476 141.24502808 21.70185913 141.96136475 21.86810303 C168.65016226 28.09714138 197.84571787 35.22957043 221.49902344 49.56665039 C226.48675987 52.26084097 230.3390293 52.27883904 235.85449219 51.37915039 C238.23576386 50.20955667 238.23576386 50.20955667 240.48730469 48.64477539 C245.9057782 45.24342728 251.46857098 42.827782 257.41699219 40.50415039 C258.50850586 40.07561768 259.60001953 39.64708496 260.72460938 39.20556641 C317.52469406 17.23857014 379.16123233 8.70480415 439.35449219 1.94165039 C440.09361847 1.85775055 440.83274475 1.77385071 441.5942688 1.68740845 C446.01002597 1.19168269 450.42666799 0.75619504 454.85449219 0.37915039 C455.77101563 0.29004395 456.68753906 0.2009375 457.63183594 0.10913086 C461.48201527 -0.11767568 463.4361354 0.0649798 466.55924988 2.4103241 C469.40583682 6.09229794 469.53208143 8.82457982 469.42211914 13.29052734 C469.42284927 14.07154312 469.42357941 14.8525589 469.42433167 15.65724182 C469.42085977 18.22802196 469.38202032 20.79696974 469.34277344 23.36743164 C469.33344383 25.15389516 469.32632841 26.94037151 469.32133484 28.72685242 C469.30227657 33.42074117 469.25318614 38.11385196 469.19781494 42.80743408 C469.14659702 47.60011268 469.12381538 52.39291742 469.09863281 57.18579102 C469.04506605 66.58391862 468.9597676 75.98146972 468.85449219 85.37915039 C469.6122998 85.36319824 470.37010742 85.34724609 471.15087891 85.33081055 C472.14361816 85.31840332 473.13635742 85.30599609 474.15917969 85.29321289 C475.1438623 85.27726074 476.12854492 85.26130859 477.14306641 85.24487305 C480.45258523 85.40876962 482.35176727 86.21012213 484.85449219 88.37915039 C485.9923203 90.65480661 485.99818106 91.96082059 486.03149414 94.48999023 C486.04432938 95.33782074 486.05716461 96.18565125 486.07038879 97.05917358 C486.08146919 98.43572617 486.08146919 98.43572617 486.09277344 99.84008789 C486.10084518 100.78220123 486.10891693 101.72431458 486.11723328 102.69497681 C486.13107639 104.69059405 486.14179752 106.68623499 486.1496582 108.68188477 C486.16688456 111.73507435 486.21076999 114.78718497 486.25488281 117.84008789 C486.26500845 119.77757992 486.27352496 121.71508116 486.28027344 123.65258789 C486.29778152 124.56624115 486.31528961 125.47989441 486.33332825 126.42123413 C486.33040268 127.27536896 486.32747711 128.12950378 486.32446289 129.00952148 C486.33032913 129.75849701 486.33619537 130.50747253 486.34223938 131.27914429 C485.61128423 134.42628753 484.44013567 135.43316794 481.85449219 137.37915039 C478.77398393 137.76972406 476.05246248 137.91518458 472.97241211 137.88035583 C471.61169602 137.88865743 471.61169602 137.88865743 470.22349072 137.89712673 C467.1770373 137.91076415 464.13139876 137.89574711 461.08496094 137.88085938 C458.90369315 137.88464142 456.72242775 137.89014051 454.54116821 137.89723206 C448.61147184 137.91121878 442.68206457 137.89999418 436.75238419 137.88352084 C430.55358897 137.86969331 424.35481092 137.8761278 418.15600586 137.87965393 C407.07794956 137.88253118 396.00001979 137.86596948 384.92199409 137.8412332 C374.87634389 137.81927558 364.83082416 137.81535254 354.78515625 137.82519531 C341.87762128 137.83778254 328.97018384 137.83531591 316.06265259 137.81953621 C311.1313004 137.81377024 306.1999992 137.8138639 301.26864624 137.81860161 C295.46397018 137.8233659 289.65950565 137.8132923 283.85486984 137.79164696 C281.721528 137.78607146 279.58816586 137.78562075 277.45482254 137.79059982 C274.54850257 137.79653343 271.6428335 137.78408435 268.73657227 137.76683044 C267.46245625 137.77584551 267.46245625 137.77584551 266.16260052 137.7850427 C262.82974887 137.74892475 260.32567458 137.63014465 257.35380554 136.04705906 C255.07689426 133.51411285 254.93833813 131.01747794 254.41699219 127.69165039 C252.9174978 119.87170654 250.61373128 115.26672618 245.16699219 109.56665039 C238.93835874 105.45340189 232.4506258 103.56685728 225.01464844 104.81274414 C217.81727217 106.69994045 213.02123792 110.22699604 208.85449219 116.37915039 C206.1250524 121.44810999 205.26318376 126.28003355 204.57714844 131.92602539 C203.62228877 135.16738687 202.82377312 135.75736776 199.85449219 137.37915039 C196.82476464 137.67100307 194.00188184 137.7882656 190.97241211 137.76683044 C190.06526805 137.77221598 189.15812399 137.77760152 188.22349072 137.78315026 C185.177177 137.79748274 182.13129459 137.79031306 179.08496094 137.78320312 C176.90369313 137.78890388 174.72242831 137.79586699 172.54116821 137.80400085 C166.6115307 137.82197879 160.68204079 137.82075529 154.75238419 137.81505847 C149.80674639 137.81197367 144.86113723 137.81805109 139.9155035 137.82409722 C127.58430669 137.83896001 115.2531908 137.83531605 102.92199409 137.82323391 C92.87632287 137.81391692 82.83080469 137.82327205 72.78515625 137.84570312 C61.12123976 137.87165261 49.45742701 137.8841503 37.79348087 137.87751538 C31.61848181 137.87413818 25.44362545 137.8766116 19.26864624 137.8937664 C13.46393942 137.90918812 7.65956337 137.90533303 1.85486984 137.88646126 C-0.2784786 137.8827623 -2.41185129 137.88592162 -4.54517746 137.89634705 C-7.45164686 137.90946908 -10.35700693 137.89808762 -13.26342773 137.88035583 C-14.53754375 137.89476334 -14.53754375 137.89476334 -15.83739948 137.90946192 C-19.51955997 137.86306069 -21.68217595 137.72818762 -24.66889191 135.47823429 C-26.34350589 133.09768614 -26.65073479 131.92470482 -26.66308594 129.04125977 C-26.67569458 128.19358032 -26.68830322 127.34590088 -26.70129395 126.47253418 C-26.69319702 125.56515503 -26.6851001 124.65777588 -26.67675781 123.72290039 C-26.68058472 122.78361694 -26.68441162 121.8443335 -26.68835449 120.87658691 C-26.69107357 118.89289273 -26.68371265 116.90916269 -26.66699219 114.92553711 C-26.64558243 111.88973024 -26.66679388 108.85628994 -26.69238281 105.82055664 C-26.68973954 103.892166 -26.68461456 101.96377684 -26.67675781 100.03540039 C-26.68485474 99.12802124 -26.69295166 98.22064209 -26.70129395 97.2857666 C-26.60771784 90.99464194 -26.60771784 90.99464194 -24.23730469 87.83813477 C-20.75367807 85.40837838 -18.74943139 85.26747686 -14.52050781 85.31665039 C-13.01617188 85.33018555 -13.01617188 85.33018555 -11.48144531 85.34399414 C-10.71058594 85.3555957 -9.93972656 85.36719727 -9.14550781 85.37915039 C-9.15661087 84.38800735 -9.16771393 83.39686432 -9.17915344 82.37568665 C-9.28053601 73.03259466 -9.35547625 63.68961435 -9.40456867 54.34609699 C-9.43065636 49.54250974 -9.46603914 44.73936673 -9.52270508 39.93603516 C-9.57705463 35.30001145 -9.60693459 30.66441487 -9.61989403 26.02809715 C-9.62912866 24.2598212 -9.6471621 22.49156849 -9.6741581 20.7234745 C-9.71048892 18.24531273 -9.71545169 15.76891282 -9.71313477 13.29052734 C-9.73111115 12.56044464 -9.74908752 11.83036194 -9.76760864 11.07815552 C-9.72865374 7.22418824 -9.23955674 5.50188776 -6.86912537 2.40838623 C-4.14640875 0.37982164 -3.28275434 -0.2332376 0 0 Z M8.85449219 19.37915039 C8.85449219 29.93915039 8.85449219 40.49915039 8.85449219 51.37915039 C42.51449219 51.37915039 76.17449219 51.37915039 110.85449219 51.37915039 C110.85449219 57.31915039 110.85449219 63.25915039 110.85449219 69.37915039 C77.19449219 69.37915039 43.53449219 69.37915039 8.85449219 69.37915039 C8.85449219 74.65915039 8.85449219 79.93915039 8.85449219 85.37915039 C29.05597438 85.61078985 49.25708069 85.78917052 69.45961761 85.89727211 C78.84040071 85.94880349 88.22034275 86.0190371 97.60058594 86.13354492 C105.77794414 86.233321 113.95469322 86.29775636 122.13264322 86.32003534 C126.46189197 86.33305638 130.78939843 86.36357828 135.11808777 86.43645096 C139.19637285 86.50454913 143.27220591 86.52522558 147.35100555 86.5102272 C148.84423424 86.51296893 150.33754842 86.53274016 151.83028412 86.57120514 C160.22398886 86.88697412 160.22398886 86.88697412 167.48005676 83.17325974 C169.49888603 80.66313413 171.18670927 78.12998287 172.85449219 75.37915039 C175.41699219 72.62915039 175.41699219 72.62915039 177.85449219 70.37915039 C178.34046875 69.9112207 178.82644531 69.44329102 179.32714844 68.96118164 C184.27591145 64.41019154 189.89031495 61.42055723 195.85449219 58.37915039 C156.90813635 32.41491316 89.49083626 28.93857891 44.16699219 23.00415039 C42.71042206 22.81281525 42.71042206 22.81281525 41.22442627 22.61761475 C38.43125947 22.25358332 35.63728945 21.89672523 32.84277344 21.54321289 C32.03905807 21.43938293 31.23534271 21.33555298 30.40727234 21.22857666 C23.21570257 20.33781556 16.11721063 19.89791599 8.85449219 19.37915039 Z M438.64746094 20.26196289 C437.82743088 20.35640182 437.00740082 20.45084076 436.16252136 20.54814148 C378.24654245 27.2720348 318.17771946 35.08982621 263.85449219 57.37915039 C267.72465337 60.37716257 271.84031874 62.89716733 276.00292969 65.46508789 C281.22304455 68.96900061 284.81330635 72.01442371 288.14931548 77.36797696 C290.9517109 81.72280218 293.25680473 84.82340977 298.24571609 86.55875587 C302.32451642 86.97792596 306.22078424 86.99267483 310.31005859 86.85498047 C311.84845669 86.85130705 313.38687752 86.85338449 314.92526245 86.86073303 C319.07532877 86.86444303 323.22044791 86.78837857 327.36936998 86.69727159 C331.71460463 86.61564791 336.05997029 86.60834087 340.40585327 86.59294128 C348.62311148 86.55263693 356.83810411 86.44610538 365.05436742 86.31539792 C374.41322933 86.16976622 383.77220318 86.09853468 393.13191724 86.03335726 C412.37409276 85.89770521 431.61402676 85.66661563 450.85449219 85.37915039 C450.85449219 80.09915039 450.85449219 74.81915039 450.85449219 69.37915039 C417.19449219 69.37915039 383.53449219 69.37915039 348.85449219 69.37915039 C348.85449219 63.43915039 348.85449219 57.49915039 348.85449219 51.37915039 C382.51449219 51.37915039 416.17449219 51.37915039 450.85449219 51.37915039 C450.85449219 40.81915039 450.85449219 30.25915039 450.85449219 19.37915039 C446.72787092 19.37915039 442.73729471 19.7849606 438.64746094 20.26196289 Z M186.85449219 85.37915039 C183.90230992 89.23338835 181.23514536 93.24814224 178.59667969 97.32055664 C176.00516183 101.30381557 176.00516183 101.30381557 173.85449219 102.37915039 C172.33433726 102.48316968 170.80976684 102.52564828 169.28610229 102.53736877 C167.84315796 102.552052 167.84315796 102.552052 166.37106323 102.56703186 C165.31226959 102.57278732 164.25347595 102.57854279 163.16259766 102.58447266 C162.05039856 102.59437225 160.93819946 102.60427185 159.79229736 102.61447144 C156.10211341 102.64615495 152.41191656 102.67087095 148.72167969 102.69555664 C146.16862649 102.71612025 143.61557674 102.73711656 141.06253052 102.75852966 C135.02065512 102.80815582 128.97876215 102.85340523 122.93683827 102.89655203 C116.05901942 102.94591106 109.18124855 103.00083413 102.3034761 103.05623162 C88.15385928 103.17007565 74.00419576 103.27671204 59.85449219 103.37915039 C59.85449219 108.65915039 59.85449219 113.93915039 59.85449219 119.37915039 C102.09449219 119.37915039 144.33449219 119.37915039 187.85449219 119.37915039 C190.32949219 113.43915039 190.32949219 113.43915039 192.85449219 107.37915039 C199.69622495 96.96781793 208.59728575 89.78655134 220.97949219 87.06665039 C233.63306217 85.02321673 245.86393064 87.655325 256.31933594 95.14477539 C264.34960407 101.66559463 268.60563716 109.63258531 271.85449219 119.37915039 C314.09449219 119.37915039 356.33449219 119.37915039 399.85449219 119.37915039 C399.85449219 114.09915039 399.85449219 108.81915039 399.85449219 103.37915039 C398.43739456 103.37772537 397.02029694 103.37630035 395.56025696 103.37483215 C382.21411628 103.35817233 368.86826715 103.31572695 355.52229023 103.24705982 C348.66073876 103.21241791 341.79938802 103.18705539 334.93774414 103.18359375 C328.31751338 103.18022778 321.69772644 103.15092867 315.07762718 103.10571861 C312.5502739 103.09271565 310.02286031 103.08844576 307.49547768 103.0929966 C303.95874961 103.09788233 300.42350838 103.07189694 296.88696289 103.03857422 C295.83895508 103.04719986 294.79094727 103.0558255 293.71118164 103.06471252 C286.59150949 102.95204997 286.59150949 102.95204997 282.76872253 99.98051453 C279.30706571 95.27625836 279.30706571 95.27625836 277.79199219 92.87915039 C277.28023437 92.09797852 276.76847656 91.31680664 276.24121094 90.51196289 C275.55478516 89.4562207 275.55478516 89.4562207 274.85449219 88.37915039 C268.48201159 78.82042949 257.05554631 73.38086822 246.13037109 71.03881836 C226.32105475 67.15291319 201.15119791 69.05584978 186.85449219 85.37915039 Z M-8.14550781 103.37915039 C-8.14550781 108.65915039 -8.14550781 113.93915039 -8.14550781 119.37915039 C8.35449219 119.37915039 24.85449219 119.37915039 41.85449219 119.37915039 C41.85449219 114.09915039 41.85449219 108.81915039 41.85449219 103.37915039 C25.35449219 103.37915039 8.85449219 103.37915039 -8.14550781 103.37915039 Z M417.85449219 103.37915039 C417.85449219 108.65915039 417.85449219 113.93915039 417.85449219 119.37915039 C434.35449219 119.37915039 450.85449219 119.37915039 467.85449219 119.37915039 C467.85449219 114.09915039 467.85449219 108.81915039 467.85449219 103.37915039 C451.35449219 103.37915039 434.85449219 103.37915039 417.85449219 103.37915039 Z " fill="#FF9008" transform="translate(26.1455078125,374.620849609375)"/>
<path d="M0 0 C3.15327945 0.08618288 4.39599631 0.2318727 7.125 1.9375 C9.70201056 6.12514217 9.93047991 10.03487961 8.84765625 14.78515625 C8.46480469 15.99042969 8.08195312 17.19570313 7.6875 18.4375 C0.53828072 43.89747479 8.90067863 69.27597176 21.375 91.5625 C30.90945323 108.01876269 43.12775385 122.77610397 56.07421875 136.640625 C58.48649439 139.22652538 60.84148888 141.85406102 63.1875 144.5 C69.57561975 151.60678322 76.29647496 158.25608319 83.50366211 164.52514648 C103.17250872 181.67681535 123.01489687 202.23698333 126.625 229.375 C128.31899608 256.47314579 120.87153444 278.88018314 102.9609375 299.49609375 C100.25493378 302.52756679 97.44731028 305.45174872 94.625 308.375 C93.85800781 309.20515625 93.09101563 310.0353125 92.30078125 310.890625 C71.78644777 332.48466024 71.78644777 332.48466024 60.1875 333.75 C55.96575092 333.30560536 54.44185011 332.52324425 51.625 329.375 C50.40788195 325.28896084 50.76986902 322.4606258 51.625 318.375 C53.77620766 292.13026659 35.50907038 266.50420303 19.625 247.375 C16.86416041 244.22196818 14.02291719 241.14656622 11.15625 238.08984375 C9.02841477 235.8076748 6.96838843 233.49283128 4.9375 231.125 C0.2555214 225.74072461 -4.74925599 220.76873153 -10.140625 216.09765625 C-34.22817342 195.11062338 -53.93690649 168.88259406 -58.375 136.375 C-58.48457031 135.60671875 -58.59414062 134.8384375 -58.70703125 134.046875 C-62.01650213 106.68858241 -55.34871904 79.83552031 -43.375 55.375 C-43.02421387 54.65425293 -42.67342773 53.93350586 -42.31201172 53.19091797 C-35.70684399 39.78391008 -16.08715115 0.26722842 0 0 Z M-14.375 41.375 C-33.14930453 70.6160708 -46.37269553 104.23920244 -39.375 139.375 C-32.27298643 168.79762764 -12.74296436 190.64513059 9.78515625 210.00390625 C13.93238802 213.57600502 17.69932484 217.4433802 21.4375 221.4375 C22.47898193 222.54895386 22.47898193 222.54895386 23.54150391 223.68286133 C29.65743977 230.28334682 35.26680904 237.15227524 40.625 244.375 C41.04974609 244.93751465 41.47449219 245.5000293 41.91210938 246.07958984 C55.51269553 264.12968698 65.05275048 283.15924646 69.625 305.375 C87.35480521 295.96123851 101.48410225 273.69166347 107.5625 255.0625 C111.23025859 239.47452598 108.34012724 223.70343411 100.3203125 209.9609375 C97.39456112 205.49815543 94.09912922 201.41941081 90.625 197.375 C89.96242188 196.58996094 89.29984375 195.80492187 88.6171875 194.99609375 C84.91267095 190.7032128 81.03287194 186.93438033 76.74804688 183.22875977 C73.38475274 180.29206561 70.12853841 177.24473553 66.875 174.1875 C66.18543213 173.53966553 65.49586426 172.89183105 64.78540039 172.22436523 C56.66009308 164.55981485 48.5466431 156.8545306 41.30859375 148.33203125 C40.12032882 146.95077666 38.90081807 145.59610851 37.66015625 144.26171875 C10.68325508 115.23593901 -9.0888678 81.10996674 -13.375 41.375 C-13.705 41.375 -14.035 41.375 -14.375 41.375 Z " fill="#FF9007" transform="translate(187.375,-0.375)"/>
<path d="M0 0 C6.03167387 1.90568534 10.3603558 7.35683973 14.62109375 11.828125 C15.49121094 12.70339844 16.36132812 13.57867187 17.2578125 14.48046875 C33.21987296 31.14415824 45.35514546 52.3426895 45.09375 75.84960938 C44.48983926 92.08955701 37.02466723 104.64562241 25.62109375 115.828125 C23.19285152 117.90007012 20.71356614 119.86766643 18.1796875 121.80859375 C14.55977992 124.66583378 11.21495207 127.79738448 7.84765625 130.9453125 C5.62109375 132.828125 5.62109375 132.828125 3.45703125 133.8359375 C1.07859653 135.12130435 0.75897172 136.41123691 -0.37890625 138.828125 C-1.72655447 140.27083554 -3.1054833 141.68457461 -4.50390625 143.078125 C-11.96935236 151.24421169 -17.93349251 161.5867203 -18.1796875 172.8359375 C-18.49716255 176.010688 -20.12127484 177.70731974 -22.37890625 179.828125 C-25.19164092 181.23449234 -27.25629328 181.05744786 -30.37890625 180.828125 C-47.2218707 173.45770604 -62.51542032 155.34702333 -69.37890625 138.828125 C-73.4960345 127.88889535 -71.68353143 116.47536661 -67.16015625 106.0078125 C-62.45173942 96.61713672 -55.73107055 90.51143765 -47.37890625 84.328125 C-30.81704105 72.02921775 -12.30945885 54.0935719 -8.625 32.8984375 C-7.93263813 27.07380593 -8.2795874 22.85330029 -9.94140625 17.265625 C-11.25731789 12.74139545 -11.79433458 9.45185753 -10.37890625 4.828125 C-7.84251351 0.70648679 -4.65394302 -0.21397439 0 0 Z M9.62109375 34.828125 C9.32976562 35.84390625 9.0384375 36.8596875 8.73828125 37.90625 C3.71425337 54.98294367 -3.89067696 69.44598083 -17.19921875 81.55859375 C-18.60580972 82.78347187 -18.60580972 82.78347187 -18.37890625 84.828125 C-18.97960937 85.09753906 -19.5803125 85.36695313 -20.19921875 85.64453125 C-22.39369499 86.83615544 -23.59222704 87.92879582 -25.25390625 89.765625 C-28.70837847 93.354979 -32.49485042 96.31177367 -36.44140625 99.328125 C-44.63934482 105.6477488 -51.6896587 111.91804977 -53.25390625 122.703125 C-53.89923737 132.11654194 -48.78323277 139.44790835 -43.37890625 146.828125 C-40.88257169 149.6894471 -38.345062 152.44838165 -35.37890625 154.828125 C-34.71890625 154.828125 -34.05890625 154.828125 -33.37890625 154.828125 C-32.90582031 153.87292969 -32.43273437 152.91773438 -31.9453125 151.93359375 C-22.23532809 132.75294676 -7.06941901 117.37483934 9.99243164 104.44189453 C18.5207333 97.93685373 24.45627704 90.52967174 26.62109375 79.828125 C28.0032688 63.66730905 21.63041164 48.66891096 11.78515625 36.0859375 C11.40101563 35.67085937 11.016875 35.25578125 10.62109375 34.828125 C10.29109375 34.828125 9.96109375 34.828125 9.62109375 34.828125 Z " fill="#FF9007" transform="translate(343.37890625,-0.828125)"/>
<path d="M0 0 C3.85195014 2.99283146 4.62600299 5.52652778 5.4375 10.25 C7.26827139 19.02982838 10.60525915 24.86895533 18 30 C22.38170574 31.89210021 26.94392713 32.58757709 31.6328125 33.33984375 C34.38089815 34.10622407 35.93938036 35.03116743 38 37 C39.5735311 43.50392856 39.5735311 43.50392856 37.9921875 47.62890625 C35.23920613 50.90549388 32.21854916 51.32061153 28.1875 52.0625 C19.26329358 53.78154068 13.28275206 57.48858691 8 65 C6.74447657 67.82492772 6.09816733 70.41747875 5.5859375 73.45703125 C4.37414824 80.4710318 4.37414824 80.4710318 2.1875 83.5625 C-0.35499439 85.23328202 -1.95667735 85.85154524 -5 86 C-8.46908341 85.00883331 -10.75812574 83.82888312 -13 81 C-13.51953125 78.43359375 -13.51953125 78.43359375 -13.8125 75.4375 C-14.88862018 68.21087177 -17.37462036 62.50734403 -22.6796875 57.375 C-27.82786205 53.66301149 -33.6601897 52.84745905 -39.828125 51.87109375 C-43.40909908 50.8876489 -44.81465492 49.97567618 -47 47 C-47.53125 44.78125 -47.53125 44.78125 -47.5 42.5 C-47.5103125 41.7471875 -47.520625 40.994375 -47.53125 40.21875 C-46.77740407 37.07033463 -45.57154414 35.94546558 -43 34 C-39.828125 33.12890625 -39.828125 33.12890625 -36.25 32.5625 C-28.52792867 31.05497206 -22.91302644 29.06704816 -18.1875 22.5625 C-15.44635522 17.78377093 -14.72351153 12.55680389 -13.87109375 7.171875 C-12.89844231 3.63020249 -11.82581211 2.27800593 -9 0 C-5.81452856 -1.59273572 -3.39809153 -0.76164121 0 0 Z M-6.62890625 36.53125 C-7.26699219 37.1809375 -7.90507812 37.830625 -8.5625 38.5 C-9.20316406 39.1496875 -9.84382813 39.799375 -10.50390625 40.46875 C-10.99761719 40.9740625 -11.49132812 41.479375 -12 42 C-11.07347299 43.17539996 -10.13336613 44.34010577 -9.1875 45.5 C-8.66542969 46.1496875 -8.14335937 46.799375 -7.60546875 47.46875 C-6.00795167 49.34509128 -6.00795167 49.34509128 -3 49 C-1.32154581 47.46646436 -1.32154581 47.46646436 0.1875 45.5 C0.71730469 44.8503125 1.24710937 44.200625 1.79296875 43.53125 C2.19128906 43.0259375 2.58960938 42.520625 3 42 C1.8572081 40.83035398 0.71068285 39.66435444 -0.4375 38.5 C-1.39462891 37.52546875 -1.39462891 37.52546875 -2.37109375 36.53125 C-4.5 34.4760214 -4.5 34.4760214 -6.62890625 36.53125 Z " fill="#FF9007" transform="translate(431,188)"/>
<path d="M0 0 C3.28280136 2.06959216 4.68533687 3.70074579 5.60546875 7.5 C5.9148774 9.40405323 6.21004865 11.31046541 6.4921875 13.21875 C7.6971398 19.81818106 10.76627521 24.62074745 16.01953125 28.75390625 C20.88479354 31.81508706 26.2980217 32.87823627 31.875 33.9375 C34.59111009 34.53001965 35.84668871 34.87920928 38.0625 36.625 C39.45726549 40.15840591 39.85569017 43.32126363 39 47 C35.50105003 51.47088052 32.73191899 52.20815753 27.1875 52.9375 C20.1003692 53.90472629 14.98261228 56.2922915 10.44140625 61.9375 C7.11464013 67.30771 5.97394656 72.89563771 4.96875 79.08203125 C3.75154242 82.74837827 2.22536362 83.95500288 -1 86 C-4.69401053 86.61566842 -6.35317861 86.38986495 -9.56640625 84.453125 C-12.65511436 81.3396279 -13.18527269 78.41030696 -13.9375 74.25 C-15.60958272 66.62444531 -17.51239657 61.05220128 -24.22265625 56.48828125 C-28.70842139 54.00724791 -32.8122084 52.74353415 -37.875 52 C-41.5104747 51.43950956 -42.76019324 51.19519155 -45.6875 48.8125 C-47.38725814 45.17016112 -47.6390658 42.97640943 -47 39 C-43.40766595 34.51959823 -40.6685469 33.30792856 -35.0625 32.4375 C-26.61785221 30.85082296 -22.03505466 28.07629303 -17 21 C-14.47680639 15.95361278 -13.48173248 10.75705275 -12.72265625 5.19921875 C-10.84501379 -0.51490397 -5.30090598 -1.06439663 0 0 Z M-6.5078125 37.3125 C-7.04148438 37.869375 -7.57515625 38.42625 -8.125 39 C-8.66382813 39.556875 -9.20265625 40.11375 -9.7578125 40.6875 C-10.16773438 41.120625 -10.57765625 41.55375 -11 42 C-9.768606 45.69418201 -7.79208646 47.35109746 -5 50 C-0.7257442 48.4169423 1.26531794 45.49431596 4 42 C2.8803014 40.99406757 1.7540588 39.9954151 0.625 39 C-0.00148438 38.443125 -0.62796875 37.88625 -1.2734375 37.3125 C-3.53477937 35.59347088 -4.33636136 35.42232491 -6.5078125 37.3125 Z " fill="#FF9007" transform="translate(149,273)"/>
<path d="M0 0 C2.875 1.75 2.875 1.75 5 5 C5.6257463 7.98729567 6.02150692 10.9718467 6.4296875 13.99609375 C7.71572616 20.76981791 11.79682026 25.74845864 17.34375 29.6953125 C21.50287759 31.73817811 25.91415048 32.66858848 30.45239258 33.53222656 C33.58423845 34.16768444 35.63169096 34.64126699 37.953125 36.90234375 C39.55436599 40.11080052 39.4333684 42.47114299 39 46 C36.91419912 49.41220824 35.73965516 50.77985357 31.86328125 51.93359375 C30.10564453 52.18302734 30.10564453 52.18302734 28.3125 52.4375 C20.20171695 53.93980945 14.78929474 56.56702186 9.5625 63 C7.59695444 66.77384748 6.27613167 70.24279848 5.61328125 74.4609375 C4.50195254 81.41438871 4.50195254 81.41438871 1.75 84.625 C-1.56436316 86.28218158 -3.34121965 86.60979672 -7 86 C-10.65805714 83.79514364 -11.83737527 82.50937372 -13.15234375 78.390625 C-13.42628367 77.01279022 -13.68754969 75.632388 -13.9375 74.25 C-15.60958272 66.62444531 -17.51239657 61.05220128 -24.22265625 56.48828125 C-28.70842139 54.00724791 -32.8122084 52.74353415 -37.875 52 C-41.5104747 51.43950956 -42.76019324 51.19519155 -45.6875 48.8125 C-47.38725814 45.17016112 -47.6390658 42.97640943 -47 39 C-43.42053132 34.53892144 -40.77891271 33.35775054 -35.1875 32.5625 C-26.97026111 31.01532113 -22.02012259 28.16045812 -17.125 21.375 C-15.11160006 17.91488554 -14.53304367 14.76186902 -14 10.8125 C-13.45532721 6.89580749 -13.08452551 5.12927432 -10.875 1.75 C-7.09050297 -0.55360689 -4.31408851 -1.03049078 0 0 Z M-6.5078125 37.3125 C-7.04148438 37.869375 -7.57515625 38.42625 -8.125 39 C-8.66382813 39.556875 -9.20265625 40.11375 -9.7578125 40.6875 C-10.16773438 41.120625 -10.57765625 41.55375 -11 42 C-9.768606 45.69418201 -7.79208646 47.35109746 -5 50 C-1.27762318 48.75920773 0.35749329 46.85112566 3 44 C3.33 43.34 3.66 42.68 4 42 C2.8803014 40.99406757 1.7540588 39.9954151 0.625 39 C-0.00148438 38.443125 -0.62796875 37.88625 -1.2734375 37.3125 C-3.53477937 35.59347088 -4.33636136 35.42232491 -6.5078125 37.3125 Z " fill="#FF9007" transform="translate(260,0)"/>
<path d="M0 0 C6.11567511 3.87667272 9.88824147 9.07864165 12 16 C13.26423784 24.96272682 12.40012781 32.5952793 7 40 C2.21178023 45.47391144 -3.40288302 48.44089118 -10.6015625 49.31640625 C-19.12143115 49.68840051 -26.46306497 47.64574152 -32.875 41.875 C-38.30102301 35.85891303 -40.77144116 28.57767803 -40.37890625 20.51171875 C-39.1453758 12.33481069 -35.63457383 5.96276653 -29 1 C-20.37915735 -4.58696918 -9.00329922 -5.12525475 0 0 Z M-21 19 C-22.24677006 21.89706707 -22.24677006 21.89706707 -22 25 C-19.98863937 28.77130118 -18.63640532 29.79172189 -14.5625 31.125 C-10.88838909 31.32041984 -10.88838909 31.32041984 -8.0625 28.9375 C-5.82852347 26.16764391 -5.82852347 26.16764391 -5.375 23 C-6.21746209 18.95618195 -7.73399981 17.46764459 -11 15 C-15.52849739 13.98108809 -17.90813196 15.73636151 -21 19 Z " fill="#FF9007" transform="translate(449,88)"/>
<path d="M0 0 C8.05466141 0.52817452 14.22685181 2.66088193 20.12109375 8.28125 C25.21949433 14.21564698 27.19547236 21.02790996 27.09375 28.74609375 C26.29797047 35.83074202 22.99326396 42.40711195 17.8125 47.25 C10.30953913 52.63784048 2.85022348 53.36119551 -6.1875 52.25 C-14.82419715 50.19910289 -19.60097235 44.42181878 -24.125 37.125 C-26.40320962 30.93111759 -26.27867587 23.01631671 -24.4609375 16.7421875 C-21.07000606 9.4916593 -15.14229939 4.90518087 -8.1875 1.25 C-5.37687733 0.35882696 -2.94355925 0.23086739 0 0 Z M-5.94140625 21.7578125 C-7.4487852 23.32482155 -7.4487852 23.32482155 -7.8125 26.25 C-7.02613896 30.02453301 -6.10174645 31.70937489 -3.1875 34.25 C0.81995494 34.89405526 2.84509292 34.93736819 6.1875 32.5625 C8.03171807 29.93803583 8.73419023 28.46070053 8.8125 25.25 C7.52242612 22.33035912 6.48955859 20.6943197 3.8125 18.9375 C-0.53804955 17.44199859 -2.61906097 18.82486929 -5.94140625 21.7578125 Z " fill="#FF9007" transform="translate(315.1875,314.75)"/>
<path d="M0 0 C5.64700409 3.74697828 8.93147154 8.30485406 10.828125 14.81640625 C11.86972726 22.9372168 11.74477666 30.98553821 6.828125 37.81640625 C1.41935973 43.7383371 -3.38750822 47.33907963 -11.5390625 48.15234375 C-20.56074851 48.25280796 -25.95456034 47.34718131 -32.859375 41.56640625 C-36.75249592 36.93674894 -40.69373606 32.0322125 -41.171875 25.81640625 C-41.254375 24.76453125 -41.336875 23.71265625 -41.421875 22.62890625 C-40.89370048 14.57424484 -38.76099307 8.40205444 -33.140625 2.5078125 C-23.33591306 -5.9156801 -11.04239709 -6.01770921 0 0 Z M-21.171875 16.81640625 C-22.91881492 19.19859706 -23.19463773 20.36115158 -23.046875 23.31640625 C-21.93495312 26.4933259 -20.92498337 27.8602503 -18.171875 29.81640625 C-14.23171487 30.37928627 -12.11405304 30.42036653 -8.734375 28.25390625 C-6.56791472 24.87422821 -6.60899498 22.75656638 -7.171875 18.81640625 C-9.10169917 16.10035742 -10.51388275 15.06948019 -13.609375 13.87890625 C-17.0189804 13.79574514 -18.50969771 14.72983486 -21.171875 16.81640625 Z " fill="#FF9007" transform="translate(100.171875,174.18359375)"/>
<path d="M0 0 C5.94 0 11.88 0 18 0 C18 5.94 18 11.88 18 18 C12.06 18 6.12 18 0 18 C0 12.06 0 6.12 0 0 Z " fill="#FF8F08" transform="translate(341,426)"/>
<path d="M0 0 C5.94 0 11.88 0 18 0 C18 5.94 18 11.88 18 18 C12.06 18 6.12 18 0 18 C0 12.06 0 6.12 0 0 Z " fill="#FF8F07" transform="translate(213,358)"/>
<path d="M0 0 C5.94 0 11.88 0 18 0 C18 5.94 18 11.88 18 18 C12.06 18 6.12 18 0 18 C0 12.06 0 6.12 0 0 Z " fill="#FF9007" transform="translate(51,315)"/>
<path d="M0 0 C5.94 0 11.88 0 18 0 C18 5.94 18 11.88 18 18 C12.06 18 6.12 18 0 18 C0 12.06 0 6.12 0 0 Z " fill="#FF8F07" transform="translate(349,273)"/>
<path d="M0 0 C5.94 0 11.88 0 18 0 C18 5.94 18 11.88 18 18 C12.06 18 6.12 18 0 18 C0 12.06 0 6.12 0 0 Z " fill="#FF8F08" transform="translate(256,230)"/>
<path d="M0 0 C5.94 0 11.88 0 18 0 C18 5.94 18 11.88 18 18 C12.06 18 6.12 18 0 18 C0 12.06 0 6.12 0 0 Z " fill="#FF8F08" transform="translate(128,230)"/>
<path d="M0 0 C5.94 0 11.88 0 18 0 C18 5.94 18 11.88 18 18 C12.06 18 6.12 18 0 18 C0 12.06 0 6.12 0 0 Z " fill="#FF9007" transform="translate(230,204)"/>
<path d="M0 0 C5.94 0 11.88 0 18 0 C18 5.94 18 11.88 18 18 C12.06 18 6.12 18 0 18 C0 12.06 0 6.12 0 0 Z " fill="#FF8F08" transform="translate(349,162)"/>
</svg>
